<?xml version="1.0" standalone="no"?>
<!DOCTYPE svg PUBLIC "-//W3C//DTD SVG 20010904//EN"
 "http://www.w3.org/TR/2001/REC-SVG-20010904/DTD/svg10.dtd">
<svg version="1.0" xmlns="http://www.w3.org/2000/svg"
 width="500.000000pt" height="600.000000pt" viewBox="0 0 500.000000 600.000000"
 preserveAspectRatio="xMidYMid meet">
<metadata>
Created by potrace 1.16, written by Peter Selinger 2001-2019
</metadata>
<g transform="translate(0.000000,600.000000) scale(0.100000,-0.100000)"
fill="#000000" stroke="none">
<path d="M33 5973 c-10 -4 -13 -608 -13 -2973 0 -2697 1 -2968 16 -2974 20 -8
4908 -8 4928 0 15 6 16 277 16 2974 0 2697 -1 2968 -16 2974 -19 7 -4913 7
-4931 -1z m4747 -2993 l0 -2740 -2260 0 -2260 0 0 2740 0 2740 2260 0 2260 0
0 -2740z"/>
<path d="M889 5038 c-18 -7 -20 -16 -17 -100 l3 -93 1625 0 1625 0 3 93 c2 83
1 94 -15 98 -31 8 -3203 9 -3224 2z"/>
<path d="M889 4318 c-18 -7 -20 -16 -17 -100 l3 -93 1625 0 1625 0 3 93 c2 83
1 94 -15 98 -31 8 -3203 9 -3224 2z"/>
<path d="M869 3758 c-18 -7 -20 -16 -17 -100 l3 -93 1625 0 1625 0 3 93 c2 83
1 94 -15 98 -31 8 -3203 9 -3224 2z"/>
<path d="M859 3188 c-18 -7 -20 -16 -17 -100 l3 -93 1625 0 1625 0 3 93 c2 83
1 94 -15 98 -31 8 -3203 9 -3224 2z"/>
<path d="M849 2568 c-18 -7 -20 -16 -17 -100 l3 -93 1625 0 1625 0 3 93 c2 83
1 94 -15 98 -31 8 -3203 9 -3224 2z"/>
<path d="M849 1998 c-18 -7 -20 -16 -17 -100 l3 -93 1625 0 1625 0 3 93 c2 83
1 94 -15 98 -31 8 -3203 9 -3224 2z"/>
<path d="M854 1377 c-3 -8 -4 -52 -2 -98 l3 -84 825 0 825 0 0 95 0 95 -823 3
c-680 2 -823 0 -828 -11z"/>
</g>
</svg>
